<?xml version="1.0" standalone="no"?>
<!DOCTYPE svg PUBLIC "-//W3C//DTD SVG 20010904//EN"
 "http://www.w3.org/TR/2001/REC-SVG-20010904/DTD/svg10.dtd">
<svg version="1.0" xmlns="http://www.w3.org/2000/svg"
 width="200.000000pt" height="200.000000pt" viewBox="0 0 400.000000 400.000000"
 preserveAspectRatio="xMidYMid meet">

<g transform="translate(0.000000,400.000000) scale(0.100000,-0.100000)"
fill="#000000" stroke="none">
<path d="M210 598 c-64 -32 -95 -91 -95 -179 0 -79 28 -128 91 -159 76 -37
202 -19 236 34 4 6 8 46 8 89 l0 78 -77 -3 -78 -3 0 -30 c0 -29 2 -30 48 -33
44 -3 47 -5 47 -31 0 -37 -20 -52 -73 -58 -88 -10 -143 48 -134 140 8 92 96
142 181 102 35 -17 38 -17 56 0 24 22 13 39 -38 61 -51 21 -121 18 -172 -8z"/>
<path d="M1314 610 c-33 -13 -64 -59 -64 -95 0 -61 42 -93 145 -110 48 -8 85
-30 85 -50 0 -57 -113 -76 -169 -29 -25 21 -34 23 -51 14 -26 -14 -25 -32 3
-57 38 -35 67 -45 128 -45 82 0 129 26 149 80 13 37 12 45 -3 76 -19 40 -53
61 -117 70 -71 11 -100 26 -100 50 0 12 5 27 12 34 18 18 100 15 127 -4 18
-13 28 -14 48 -5 30 14 26 29 -17 59 -26 17 -46 22 -94 21 -34 0 -71 -4 -82
-9z"/>
<path d="M502 428 l3 -183 32 -3 32 -3 3 63 c3 62 3 63 34 66 27 3 38 -5 89
-63 l57 -66 72 3 c69 3 71 4 86 35 l15 33 97 0 96 0 21 -35 c16 -28 27 -35 51
-35 18 0 30 5 30 13 -1 6 -36 89 -79 182 l-77 170 -40 3 -39 3 -74 -168 c-41
-92 -77 -172 -81 -176 -7 -8 -100 86 -100 100 0 4 14 16 30 25 71 40 65 164
-10 203 -21 11 -60 15 -140 15 l-110 0 2 -182z m216 106 c26 -18 29 -60 5 -86
-13 -14 -31 -18 -85 -18 l-68 0 0 53 c0 30 3 57 7 60 13 14 118 7 141 -9z
m371 -146 c1 -5 -28 -8 -64 -8 -36 0 -65 2 -65 4 0 2 9 26 21 53 11 26 26 59
31 73 10 24 12 22 44 -45 18 -38 33 -73 33 -77z"/>
<path d="M1600 425 l0 -185 35 0 35 0 0 55 0 55 63 1 c114 1 165 35 174 120 4
35 0 51 -19 79 -35 52 -59 60 -180 60 l-108 0 0 -185z m226 100 c19 -26 18
-69 -3 -88 -21 -18 -31 -20 -100 -18 l-53 1 0 66 0 66 71 -4 c55 -3 74 -8 85
-23z"/>
</g>
</svg>
